<?xml version="1.0" encoding="UTF-8" standalone="no"?>
<!-- Created with Inkscape (http://www.inkscape.org/) -->

<svg
   width="16.933331mm"
   height="16.933331mm"
   viewBox="0 0 16.933331 16.933331"
   version="1.1"
   id="svg1"
   inkscape:version="1.3 (1:1.3+202307231459+0e150ed6c4)"
   sodipodi:docname="ihdev_logo.svg"
   xmlns:inkscape="http://www.inkscape.org/namespaces/inkscape"
   xmlns:sodipodi="http://sodipodi.sourceforge.net/DTD/sodipodi-0.dtd"
   xmlns="http://www.w3.org/2000/svg"
   xmlns:svg="http://www.w3.org/2000/svg">
  <sodipodi:namedview
     id="namedview1"
     pagecolor="#ffffff"
     bordercolor="#666666"
     borderopacity="1.0"
     inkscape:showpageshadow="2"
     inkscape:pageopacity="0.0"
     inkscape:pagecheckerboard="0"
     inkscape:deskcolor="#d1d1d1"
     inkscape:document-units="mm"
     inkscape:zoom="2.1402681"
     inkscape:cx="156.28883"
     inkscape:cy="170.773"
     inkscape:window-width="1848"
     inkscape:window-height="1009"
     inkscape:window-x="72"
     inkscape:window-y="34"
     inkscape:window-maximized="1"
     inkscape:current-layer="layer1" />
  <defs
     id="defs1" />
  <g
     inkscape:label="Layer 1"
     inkscape:groupmode="layer"
     id="layer1"
     transform="translate(-16.933332,-16.933333)">
    <path
       id="path1"
       d="m 21.789659,22.182428 a 1.1163951,1.632288 38.60697 0 1 -1.874634,0.429466 1.1163951,1.632288 38.60697 0 1 0.28745,-2.009997 1.1163951,1.632288 38.60697 0 1 1.874633,-0.429466 1.1163951,1.632288 38.60697 0 1 -0.287449,2.009997 z m 12.077003,3.217605 a 8.4666137,8.4666135 89.999995 0 1 -8.466656,8.46663 8.4666137,8.4666135 89.999995 0 1 -8.466674,-8.4667 8.4666137,8.4666135 89.999995 0 1 8.466657,-8.46663 8.4666137,8.4666135 89.999995 0 1 8.466673,8.4667 z"
       fill-rule="evenodd"
       style="fill:#37bafc;fill-opacity:1;stroke-width:0.999949" />
  </g>
</svg>
