<?xml version="1.0" encoding="UTF-8" standalone="no"?>
<svg
   width="117.033"
   height="30.070999"
   version="1.1"
   viewBox="0 0 117.03301 30.070998"
   xml:space="preserve"
   id="svg7"
   sodipodi:docname="logoWithText.svg"
   inkscape:export-filename="logoWithText.png"
   inkscape:export-xdpi="600"
   inkscape:export-ydpi="600"
   inkscape:version="1.3 (1:1.3+202307231459+0e150ed6c4)"
   xmlns:inkscape="http://www.inkscape.org/namespaces/inkscape"
   xmlns:sodipodi="http://sodipodi.sourceforge.net/DTD/sodipodi-0.dtd"
   xmlns="http://www.w3.org/2000/svg"
   xmlns:svg="http://www.w3.org/2000/svg"><defs
   id="defs7" /><sodipodi:namedview
   id="namedview7"
   pagecolor="#ffffff"
   bordercolor="#666666"
   borderopacity="1.0"
   inkscape:showpageshadow="2"
   inkscape:pageopacity="0.0"
   inkscape:pagecheckerboard="0"
   inkscape:deskcolor="#d1d1d1"
   inkscape:zoom="5.632398"
   inkscape:cx="55.837673"
   inkscape:cy="8.9659857"
   inkscape:window-width="1848"
   inkscape:window-height="1009"
   inkscape:window-x="72"
   inkscape:window-y="34"
   inkscape:window-maximized="1"
   inkscape:current-layer="svg7" />&#10;  <g
   transform="rotate(45,55.626285,121.31524)"
   id="g7">&#10;    <path
   d="m -1.4419,9.571 h 27.271 c 0.48788,0 0.88064,0.39277 0.88064,0.88064 v 3.0968 c 0,0.48788 -0.39277,0.88064 -0.88064,0.88064 h -27.271 c -0.48788,0 -0.88064,-0.39277 -0.88064,-0.88064 v -3.0968 c 0,-0.48788 0.39277,-0.88064 0.88064,-0.88064 z"
   fill="#d45500"
   stroke-linecap="round"
   id="path1" />&#10;    <path
   d="M 11.535,12 A 1.3258,1.3258 0 0 1 10.2092,13.3258 1.3258,1.3258 0 0 1 8.8834,12 1.3258,1.3258 0 0 1 10.2092,10.6742 1.3258,1.3258 0 0 1 11.535,12 Z"
   stroke-linecap="round"
   id="path2" />&#10;    <path
   d="m -1.4516,10.674 c 0.73222,0 1.3258,0.59358 1.3258,1.3258 0,0.73222 -0.59358,1.3258 -1.3258,1.3258"
   id="path3" />&#10;    <g
   stroke-linecap="round"
   id="g6">&#10;      <path
   d="M 16.165,12 A 1.3258,1.3258 0 0 1 14.8392,13.3258 1.3258,1.3258 0 0 1 13.5134,12 1.3258,1.3258 0 0 1 14.8392,10.6742 1.3258,1.3258 0 0 1 16.165,12 Z"
   id="path4" />&#10;      <path
   d="M 20.794,12 A 1.3258,1.3258 0 0 1 19.4682,13.3258 1.3258,1.3258 0 0 1 18.1424,12 1.3258,1.3258 0 0 1 19.4682,10.6742 1.3258,1.3258 0 0 1 20.794,12 Z"
   id="path5" />&#10;      <path
   d="M 25.423,12 A 1.3258,1.3258 0 0 1 24.0972,13.3258 1.3258,1.3258 0 0 1 22.7714,12 1.3258,1.3258 0 0 1 24.0972,10.6742 1.3258,1.3258 0 0 1 25.423,12 Z"
   id="path6" />&#10;    </g>&#10;  </g>&#10;&#10;<text
   xml:space="preserve"
   style="font-style:normal;font-variant:normal;font-weight:normal;font-stretch:normal;font-size:18.6667px;line-height:1.25;font-family:Jamrul;-inkscape-font-specification:Jamrul;text-align:center;letter-spacing:0px;word-spacing:0px;text-anchor:middle;fill:#000000;fill-opacity:1;stroke:none"
   x="40.046661"
   y="16.586391"
   id="text7"><tspan
     sodipodi:role="line"
     id="tspan7"
     x="40.046661"
     y="16.586391"
     style="font-style:normal;font-variant:normal;font-weight:bold;font-stretch:normal;font-size:18.6667px;font-family:'Liberation Sans';-inkscape-font-specification:'Liberation Sans Bold'">BaRatin</tspan></text><text
   xml:space="preserve"
   style="font-style:normal;font-variant:normal;font-weight:normal;font-stretch:normal;font-size:8px;line-height:1.25;font-family:Jamrul;-inkscape-font-specification:Jamrul;text-align:center;letter-spacing:0px;word-spacing:0px;text-anchor:middle;fill:#000000;fill-opacity:1;stroke:none"
   x="48.284882"
   y="25.954128"
   id="text7-1"><tspan
     sodipodi:role="line"
     id="tspan7-4"
     x="48.284882"
     y="25.954128"
     style="font-style:normal;font-variant:normal;font-weight:normal;font-stretch:normal;font-size:8px;font-family:'Liberation Sans';-inkscape-font-specification:'Liberation Sans'">Bayesian Rating Curves</tspan></text></svg>
